# xmcd
#
# Track frame offsets:
#	150
#	26912
#	50012
#	94187
#	117212
#	143987
#	171737
#	192437
#	217637
#	242162
#	266987
#
# Disc length: 3929 seconds
#
# Revision: 3
# Processed by: cddbd v1.4PL0 Copyright (c) Steve Scherf et al.
# Submitted via: MusicWizard 6.0.2
#
DISCID=ab0f570b
DTITLE=Ray Bryant (Piano Solo) - Plays Blues And Ballads
DYEAR=1991
DGENRE=Piano Solo
TTITLE0=Basin Street Blues
TTITLE1=I Gotta Right To Sing The Blues
TTITLE2=Medley: She's Funny That Way - Memories Of You - I Surrenderdear
TTITLE3=In De Backroom
TTITLE4=My One And Only Love
TTITLE5=Black And Blue
TTITLE6=If I Can Just Make It Into Heaven
TTITLE7=I Can't Get Started
TTITLE8=Tin Roof Blues
TTITLE9=Gee Baby Ain't I Good To You
TTITLE10=Blues In The Pulpit
EXTD=
EXTT0=
EXTT1=
EXTT2=
EXTT3=
EXTT4=
EXTT5=
EXTT6=
EXTT7=
EXTT8=
EXTT9=
EXTT10=
PLAYORDER=
